<svg width="32" height="38" viewBox="0 0 32 38" fill="none" xmlns="http://www.w3.org/2000/svg">
<path d="M26.6067 26.94L16 37.5467L5.39334 26.94C3.29557 24.8422 1.86698 22.1695 1.28821 19.2598C0.709451 16.3501 1.00651 13.3341 2.14183 10.5932C3.27715 7.85232 5.19974 5.50965 7.66647 3.86144C10.1332 2.21323 13.0333 1.3335 16 1.3335C18.9667 1.3335 21.8668 2.21323 24.3335 3.86144C26.8003 5.50965 28.7229 7.85232 29.8582 10.5932C30.9935 13.3341 31.2906 16.3501 30.7118 19.2598C30.133 22.1695 28.7044 24.8422 26.6067 26.94ZM16 19.6667C16.8841 19.6667 17.7319 19.3155 18.357 18.6904C18.9821 18.0653 19.3333 17.2174 19.3333 16.3334C19.3333 15.4493 18.9821 14.6015 18.357 13.9763C17.7319 13.3512 16.8841 13 16 13C15.116 13 14.2681 13.3512 13.643 13.9763C13.0179 14.6015 12.6667 15.4493 12.6667 16.3334C12.6667 17.2174 13.0179 18.0653 13.643 18.6904C14.2681 19.3155 15.116 19.6667 16 19.6667Z" fill="#000091" stroke="white"/>
</svg>
