<svg width="40" height="41" viewBox="0 0 40 41" fill="none" xmlns="http://www.w3.org/2000/svg">
<path d="M30.6067 28.94L20 39.5467L9.39334 28.94C7.29557 26.8422 5.86698 24.1695 5.28821 21.2598C4.70945 18.3501 5.00651 15.3341 6.14183 12.5932C7.27715 9.85232 9.19974 7.50965 11.6665 5.86144C14.1332 4.21323 17.0333 3.3335 20 3.3335C22.9667 3.3335 25.8668 4.21323 28.3335 5.86144C30.8003 7.50965 32.7229 9.85232 33.8582 12.5932C34.9935 15.3341 35.2906 18.3501 34.7118 21.2598C34.133 24.1695 32.7044 26.8422 30.6067 28.94ZM20 21.6667C20.8841 21.6667 21.7319 21.3155 22.357 20.6904C22.9821 20.0653 23.3333 19.2174 23.3333 18.3334C23.3333 17.4493 22.9821 16.6015 22.357 15.9763C21.7319 15.3512 20.8841 15 20 15C19.116 15 18.2681 15.3512 17.643 15.9763C17.0179 16.6015 16.6667 17.4493 16.6667 18.3334C16.6667 19.2174 17.0179 20.0653 17.643 20.6904C18.2681 21.3155 19.116 21.6667 20 21.6667Z" fill="#010191"/>
<path d="M31.0027 8.13831C30.2092 7.28197 29.3144 6.51681 28.3335 5.86144C25.8668 4.21323 22.9667 3.3335 20 3.3335C17.0333 3.3335 14.1332 4.21323 11.6665 5.86144C9.19974 7.50965 7.27715 9.85232 6.14183 12.5932C5.00651 15.3341 4.70945 18.3501 5.28821 21.2598C5.86202 24.1446 7.27117 26.7964 9.3396 28.886L17.7705 20.8114C17.727 20.7723 17.6845 20.7319 17.643 20.6904C17.0179 20.0653 16.6667 19.2174 16.6667 18.3334C16.6667 17.4493 17.0179 16.6015 17.643 15.9763C18.2681 15.3512 19.116 15 20 15C20.8841 15 21.7319 15.3512 22.357 15.9763C22.4327 16.052 22.5044 16.131 22.5719 16.2128L31.0027 8.13831Z" fill="#E1000F"/>
<path d="M30.6067 28.94L20 39.5467L9.39334 28.94C7.29557 26.8422 5.86698 24.1695 5.28821 21.2598C4.70945 18.3501 5.00651 15.3341 6.14183 12.5932C7.27715 9.85232 9.19974 7.50965 11.6665 5.86144C14.1332 4.21323 17.0333 3.3335 20 3.3335C22.9667 3.3335 25.8668 4.21323 28.3335 5.86144C30.8003 7.50965 32.7229 9.85232 33.8582 12.5932C34.9935 15.3341 35.2906 18.3501 34.7118 21.2598C34.133 24.1695 32.7044 26.8422 30.6067 28.94V28.94ZM20 21.6667C20.8841 21.6667 21.7319 21.3155 22.357 20.6904C22.9821 20.0653 23.3333 19.2174 23.3333 18.3334C23.3333 17.4493 22.9821 16.6015 22.357 15.9763C21.7319 15.3512 20.8841 15 20 15C19.116 15 18.2681 15.3512 17.643 15.9763C17.0179 16.6015 16.6667 17.4493 16.6667 18.3334C16.6667 19.2174 17.0179 20.0653 17.643 20.6904C18.2681 21.3155 19.116 21.6667 20 21.6667Z" stroke="white"/>
</svg>
