<svg width="40" height="40" viewBox="0 0 40 40" fill="none" xmlns="http://www.w3.org/2000/svg">
<g clip-path="url(#clip0_814_23498)">
<path d="M30.6067 28.94L20 39.5467L9.39334 28.94C7.29557 26.8422 5.86698 24.1695 5.28821 21.2598C4.70945 18.3501 5.00651 15.3341 6.14183 12.5932C7.27715 9.85232 9.19974 7.50965 11.6665 5.86144C14.1332 4.21323 17.0333 3.3335 20 3.3335C22.9667 3.3335 25.8668 4.21323 28.3335 5.86144C30.8003 7.50965 32.7229 9.85232 33.8582 12.5932C34.9935 15.3341 35.2906 18.3501 34.7118 21.2598C34.133 24.1695 32.7044 26.8422 30.6067 28.94ZM20 21.6667C20.8841 21.6667 21.7319 21.3155 22.357 20.6904C22.9821 20.0653 23.3333 19.2174 23.3333 18.3334C23.3333 17.4493 22.9821 16.6015 22.357 15.9763C21.7319 15.3512 20.8841 15 20 15C19.116 15 18.2681 15.3512 17.643 15.9763C17.0179 16.6015 16.6667 17.4493 16.6667 18.3334C16.6667 19.2174 17.0179 20.0653 17.643 20.6904C18.2681 21.3155 19.116 21.6667 20 21.6667Z" fill="#E1000F"/>
<mask id="mask0_814_23498" style="mask-type:alpha" maskUnits="userSpaceOnUse" x="5" y="3" width="30" height="37">
<path d="M30.6067 28.94L20 39.5467L9.39334 28.94C7.29557 26.8422 5.86698 24.1695 5.28821 21.2598C4.70945 18.3501 5.00651 15.3341 6.14183 12.5932C7.27715 9.85232 9.19974 7.50965 11.6665 5.86144C14.1332 4.21323 17.0333 3.3335 20 3.3335C22.9667 3.3335 25.8668 4.21323 28.3335 5.86144C30.8003 7.50965 32.7229 9.85232 33.8582 12.5932C34.9935 15.3341 35.2906 18.3501 34.7118 21.2598C34.133 24.1695 32.7044 26.8422 30.6067 28.94ZM20 21.6667C20.8841 21.6667 21.7319 21.3155 22.357 20.6904C22.9821 20.0653 23.3333 19.2174 23.3333 18.3334C23.3333 17.4493 22.9821 16.6015 22.357 15.9763C21.7319 15.3512 20.8841 15 20 15C19.116 15 18.2681 15.3512 17.643 15.9763C17.0179 16.6015 16.6667 17.4493 16.6667 18.3334C16.6667 19.2174 17.0179 20.0653 17.643 20.6904C18.2681 21.3155 19.116 21.6667 20 21.6667Z" fill="#E1000F"/>
</mask>
<g mask="url(#mask0_814_23498)">
<path d="M35.5 1.5L2.5 38L38.5 50L35.5 1.5Z" fill="#000091"/>
</g>
<path d="M30.6067 28.94L20 39.5467L9.39334 28.94C7.29557 26.8422 5.86698 24.1695 5.28821 21.2598C4.70945 18.3501 5.00651 15.3341 6.14183 12.5932C7.27715 9.85232 9.19974 7.50965 11.6665 5.86144C14.1332 4.21323 17.0333 3.3335 20 3.3335C22.9667 3.3335 25.8668 4.21323 28.3335 5.86144C30.8003 7.50965 32.7229 9.85232 33.8582 12.5932C34.9935 15.3341 35.2906 18.3501 34.7118 21.2598C34.133 24.1695 32.7044 26.8422 30.6067 28.94V28.94ZM20 21.6667C20.8841 21.6667 21.7319 21.3155 22.357 20.6904C22.9821 20.0653 23.3333 19.2174 23.3333 18.3334C23.3333 17.4493 22.9821 16.6015 22.357 15.9763C21.7319 15.3512 20.8841 15 20 15C19.116 15 18.2681 15.3512 17.643 15.9763C17.0179 16.6015 16.6667 17.4493 16.6667 18.3334C16.6667 19.2174 17.0179 20.0653 17.643 20.6904C18.2681 21.3155 19.116 21.6667 20 21.6667Z" stroke="white"/>
</g>
<defs>
<clipPath id="clip0_814_23498">
<rect width="40" height="40" fill="white"/>
</clipPath>
</defs>
</svg>
