<svg width="215" height="45" fill="none" xmlns="http://www.w3.org/2000/svg"><path d="M215 0H45.275v44.88H215V0Z" fill="#000"/><path d="M68.345 36.562c-7.77 0-13.466-5.676-13.466-13.829S60.574 8.844 68.345 8.844c7.77 0 13.526 5.72 13.526 13.889 0 8.168-5.74 13.829-13.526 13.829Zm0-21.021c-3.757 0-5.514 3.003-5.514 7.162 0 4.16 1.757 7.102 5.514 7.102 3.756 0 5.574-3.408 5.574-7.102 0-4.054-1.818-7.162-5.574-7.162ZM138.324 36.562a25.505 25.505 0 0 1-12.496-3.093l2.62-5.316a22.89 22.89 0 0 0 10.331 2.433c3.029 0 3.968-.66 3.968-2.027s-1.06-1.817-4.362-2.688c-7.165-1.922-11.754-3.498-11.754-9.129 0-5.63 4.938-7.898 11.921-7.898 3.823.042 7.589.924 11.027 2.583l-2.499 5.525a21.088 21.088 0 0 0-8.695-2.117c-3.196 0-4.029.54-4.029 1.712 0 1.171.894 1.501 6.18 3.093 5.286 1.591 9.937 3.288 9.937 8.618 0 6.127-5.454 8.304-12.118 8.304M177.631 24.97h-17.843c.288 3.634 3.287 5.015 6.15 5.015a6.996 6.996 0 0 0 2.738-.424 6.945 6.945 0 0 0 2.351-1.453l5.574 4.144a14.563 14.563 0 0 1-4.856 3.232 14.682 14.682 0 0 1-5.747 1.078c-8.588 0-14.041-5.42-14.041-13.829 0-8.168 5.741-13.889 13.299-13.889 7.937 0 12.542 6.292 12.542 13.889.008.747-.027 1.494-.106 2.237h-.061Zm-12.784-10.045a4.929 4.929 0 0 0-3.419 1.404 4.842 4.842 0 0 0-1.458 3.371h10.224a4.985 4.985 0 0 0-1.667-3.494 5.075 5.075 0 0 0-3.68-1.28ZM193.794 36.562a10.114 10.114 0 0 1-6.301-2.072V45h-7.832V9.43h7.832v1.681a9.792 9.792 0 0 1 6.301-2.237c6.362 0 11.588 4.264 11.588 14.19 0 7.957-4.211 13.513-11.588 13.513v-.015Zm-1.515-21.126a5.737 5.737 0 0 0-2.696.523 5.68 5.68 0 0 0-2.136 1.714v10.045a6.515 6.515 0 0 0 2.375 1.753 6.562 6.562 0 0 0 2.912.53c3.029 0 4.65-2.343 4.65-6.803 0-5.48-2.045-7.762-5.105-7.762ZM110.378 32.567V21.006c0-7.508-3.408-12.162-11.012-12.162a10.527 10.527 0 0 0-6.998 2.327V9.4h-7.831v23.243a3.843 3.843 0 0 0 1.155 2.75 3.911 3.911 0 0 0 2.783 1.124c1.037 0 2.03-.408 2.764-1.134a3.857 3.857 0 0 0 1.144-2.74V21.456c0-4.61 1.848-6.006 5.09-6.006 3.241 0 5.059 1.427 5.059 6.187v11.005a3.852 3.852 0 0 0 1.144 2.755 3.913 3.913 0 0 0 2.779 1.134 3.94 3.94 0 0 0 2.769-1.14 3.853 3.853 0 0 0 1.139-2.749M118.482 17.402a4.304 4.304 0 0 0 3.029-1.26 4.173 4.173 0 0 0 1.258-3.003 4.14 4.14 0 0 0-1.258-3.004 4.128 4.128 0 0 0-1.384-.933 4.169 4.169 0 0 0-1.645-.313 4.033 4.033 0 0 0-3.03 1.246 4.1 4.1 0 0 0-1.272 3.003c-.004.56.107 1.115.326 1.63.219.517.541.984.946 1.373a4.156 4.156 0 0 0 3.03 1.262Zm3.923 1.502h-7.725v13.723a3.74 3.74 0 0 0 1.136 2.658 3.822 3.822 0 0 0 2.772 1.156 3.848 3.848 0 0 0 2.772-1.156 3.76 3.76 0 0 0 1.151-2.748v-.105l-.106-13.528Z" fill="#fff"/><path d="M45.275 0H0v44.88h45.275V0Z" fill="#E1000F"/><path d="M38.595 20.826a2.349 2.349 0 0 0-1.727-.706h-5.65a.976.976 0 0 1-.696-.285.69.69 0 0 1-.197-.315.939.939 0 0 1 .197-1.051l5.362-5.3a2.78 2.78 0 0 0 .81-1.96 2.78 2.78 0 0 0-.81-1.96 2.815 2.815 0 0 0-1.977-.808c-.74 0-1.451.29-1.977.809l-5.362 5.3a.94.94 0 0 1-1.06.225.983.983 0 0 1-.59-.886V8.274a2.45 2.45 0 0 0-.713-1.727 2.343 2.343 0 0 0-1.62-.66 2.396 2.396 0 0 0-1.673.71 2.357 2.357 0 0 0-.675 1.677v5.615a.94.94 0 0 1-.606.886.946.946 0 0 1-1.06-.225l-5.363-5.3a2.774 2.774 0 0 0-1.969-.814 2.793 2.793 0 0 0-1.969.814 2.765 2.765 0 0 0-.808 1.951c0 .731.29 1.432.808 1.952l5.347 5.3a.929.929 0 0 1 .227 1.052.96.96 0 0 1-.894.6H8.27a2.444 2.444 0 0 0-1.726.706 2.317 2.317 0 0 0-.667 1.622 2.325 2.325 0 0 0 .714 1.647 2.363 2.363 0 0 0 1.68.665h5.68a.991.991 0 0 1 .893.585.908.908 0 0 1-.227 1.052l-5.226 5.285a2.766 2.766 0 0 0-.816 1.96c0 .734.294 1.438.816 1.959a2.8 2.8 0 0 0 1.97.807 2.8 2.8 0 0 0 1.969-.807l5.362-5.316a1.017 1.017 0 0 1 1.06-.225.955.955 0 0 1 .606.9v5.617a2.34 2.34 0 0 0 .675 1.675 2.379 2.379 0 0 0 1.673.712 2.38 2.38 0 0 0 1.667-.713 2.34 2.34 0 0 0 .665-1.674v-5.616a1 1 0 0 1 .591-.9 1.023 1.023 0 0 1 1.06.224l5.363 5.316a2.815 2.815 0 0 0 1.976.809c.741 0 1.452-.291 1.977-.81a2.75 2.75 0 0 0 .815-1.951 2.75 2.75 0 0 0-.815-1.952l-5.362-5.316a.944.944 0 0 1-.197-1.05.948.948 0 0 1 .894-.586h5.65a2.426 2.426 0 0 0 1.726-.706 2.25 2.25 0 0 0 0-3.228l-.12.03Zm-14.026 5.69a1.922 1.922 0 0 1-.55 1.38 1.955 1.955 0 0 1-1.374.588 1.977 1.977 0 0 1-1.378-.588 1.943 1.943 0 0 1-.56-1.38v-8.723a1.923 1.923 0 0 1 .56-1.374 1.956 1.956 0 0 1 1.378-.578 1.953 1.953 0 0 1 1.372.579 1.919 1.919 0 0 1 .552 1.373v8.724Z" fill="#fff"/></svg>